<svg width="42" height="42" viewBox="0 0 42 42" fill="none" xmlns="http://www.w3.org/2000/svg">
<path d="M41.3753 8.63973C39.914 9.28723 38.3443 9.72473 36.694 9.92248C38.3968 8.90362 39.6707 7.30005 40.278 5.41098C38.6783 6.36121 36.9274 7.03007 35.1015 7.38848C33.8737 6.0775 32.2474 5.20855 30.4751 4.91656C28.7028 4.62457 26.8837 4.92587 25.3002 5.77367C23.7167 6.62148 22.4574 7.96837 21.7178 9.60521C20.9782 11.2421 20.7997 13.0773 21.21 14.826C17.9685 14.6632 14.7974 13.8207 11.9025 12.3531C9.00766 10.8854 6.45374 8.82551 4.40652 6.30698C3.70652 7.51448 3.30402 8.91448 3.30402 10.4055C3.30324 11.7477 3.63378 13.0694 4.26631 14.2533C4.89884 15.4371 5.8138 16.4465 6.93002 17.192C5.6355 17.1508 4.36955 16.801 3.23752 16.1717V16.2767C3.23739 18.1593 3.88858 19.9839 5.08059 21.441C6.2726 22.8981 7.93202 23.8979 9.77727 24.2707C8.57639 24.5957 7.31736 24.6436 6.09527 24.4107C6.61589 26.0306 7.63001 27.447 8.99566 28.4619C10.3613 29.4767 12.0101 30.039 13.7113 30.0702C10.8235 32.3372 7.25707 33.5669 3.58577 33.5615C2.93544 33.5617 2.28565 33.5237 1.63977 33.4477C5.36635 35.8438 9.70437 37.1154 14.1348 37.1105C29.1323 37.1105 37.331 24.689 37.331 13.916C37.331 13.566 37.3223 13.2125 37.3065 12.8625C38.9013 11.7092 40.2779 10.281 41.3718 8.64498L41.3753 8.63973Z" fill="black"/>
</svg>
