<svg width="41" height="41" viewBox="0 0 41 41" fill="none" xmlns="http://www.w3.org/2000/svg">
<g clip-path="url(#clip0)">
<path d="M11.8516 7.69391C13.0534 7.69391 14.1399 7.79385 15.1354 8.01422C16.1168 8.2346 16.9637 8.57541 17.671 9.05588C18.3718 9.53635 18.9189 10.1642 19.3123 10.9713C19.6928 11.7721 19.8927 12.7664 19.8927 13.9272C19.8927 15.1879 19.5993 16.2501 19.0253 17.1034C18.4449 17.958 17.5967 18.6383 16.4564 19.1854C18.0041 19.6326 19.1521 20.4129 19.9132 21.5276C20.6807 22.6551 21.0471 24.0029 21.0471 25.5584C21.0471 26.8396 20.8267 27.9338 20.3463 28.855C19.8849 29.7756 19.2042 30.5685 18.3642 31.1638C17.5429 31.7583 16.5691 32.185 15.5147 32.472C14.4506 32.7592 13.3534 32.9053 12.2513 32.9063H-0.00128174V7.708H11.8503L11.8516 7.69391ZM28.9422 28.4681C29.6891 29.2023 30.7705 29.5687 32.1786 29.5687C33.1857 29.5687 34.0543 29.315 34.7872 28.8012C35.515 28.3079 35.948 27.7596 36.1223 27.1997H40.54C39.8533 29.3816 38.7514 30.9563 37.2972 31.898C35.843 32.8525 34.0812 33.3125 32.0389 33.3125C30.6039 33.3125 29.3291 33.0921 28.1555 32.6322C27.0504 32.1965 26.0497 31.5324 25.2188 30.6834C24.4245 29.8493 23.8107 28.8409 23.3764 27.6609C22.9421 26.4809 22.7358 25.1855 22.7358 23.7838C22.7358 22.4091 22.969 21.1547 23.4302 19.9734C23.8593 18.8391 24.508 17.8007 25.3393 16.9176C26.1862 16.0438 27.1548 15.3891 28.3092 14.8753C29.4572 14.3615 30.6987 14.1348 32.0992 14.1348C33.6546 14.1348 34.9884 14.4153 36.1633 15.0291C37.2797 15.5974 38.2503 16.415 39 17.4186C39.7546 18.4193 40.2812 19.5737 40.6079 20.8754C40.9347 22.1567 41.0346 23.5045 40.968 24.9395H27.8287C27.8287 26.3745 28.3092 27.7288 29.0434 28.463L28.9037 28.5168L28.9422 28.4681ZM11.4441 28.5539C11.9848 28.5539 12.505 28.5001 12.9919 28.3938C13.4534 28.3031 13.8946 28.129 14.2936 27.88C14.6537 27.6532 14.9612 27.3188 15.1879 26.8857C15.4083 26.4783 15.5083 25.912 15.5083 25.2445C15.5083 23.9632 15.1341 23.042 14.4141 22.4821C13.6799 21.935 12.7254 21.6608 11.5312 21.6608H5.53244V28.5808H11.4454V28.527L11.4441 28.5539ZM34.6937 18.9048C34.0864 18.2437 33.0857 17.8901 31.857 17.8901C31.0626 17.8901 30.4028 18.0169 29.8685 18.2975C29.3776 18.5372 28.9448 18.8808 28.6001 19.3046C28.293 19.682 28.0659 20.1179 27.9325 20.5858C27.8135 20.9814 27.7374 21.3886 27.7057 21.8005H35.8404C35.72 20.5192 35.2728 19.5788 34.6796 18.9113V18.9318L34.6937 18.9048ZM11.1379 17.8504C12.1193 17.8504 12.9329 17.6236 13.5736 17.1495C14.2142 16.6896 14.5217 15.9144 14.5217 14.8612C14.5217 14.2744 14.4012 13.7939 14.2142 13.4198C14.0065 13.062 13.7127 12.7616 13.3596 12.546C12.9781 12.3251 12.5596 12.1758 12.1245 12.1053C11.6515 12.0158 11.1708 11.9733 10.6895 11.9784H5.51834V17.8504H11.1379ZM26.6795 9.3826H36.8757V11.8644H26.6795V9.3621V9.3826Z" fill="black"/>
</g>
<defs>
<clipPath id="clip0">
<rect width="41" height="41" fill="white"/>
</clipPath>
</defs>
</svg>
